<svg xmlns="http://www.w3.org/2000/svg" xmlns:xlink="http://www.w3.org/1999/xlink" viewBox="0,0,256,256" width="150px" height="150px"><g fill="#da7da3" fill-rule="nonzero" stroke="none" stroke-width="1" stroke-linecap="butt" stroke-linejoin="miter" stroke-miterlimit="10" stroke-dasharray="" stroke-dashoffset="0" font-family="none" font-weight="none" font-size="none" text-anchor="none" style="mix-blend-mode: normal"><g transform="scale(5.12,5.12)"><path d="M15.75,0c0.20703,0.30469 0.63281,0.59766 0.21875,1c-0.51562,-0.40234 -1.03906,-0.70312 -2.28125,-0.90625c0.3125,0.30078 0.80859,0.60156 0.5,0.90625c-0.62109,-0.19922 -1.32812,-0.39844 -2.15625,-0.5c0.41406,0.40234 0.71484,0.70313 0.40625,0.90625c-0.62109,-0.30078 -1.63281,-0.51172 -2.5625,-0.3125l0.59375,0.625c0.10156,0.10156 -1.44531,0.09375 -2.375,0.09375c0.30859,0.50391 0.73047,1.00781 0.9375,1.8125c-0.10156,0.10156 -0.61719,0 -1.03125,0c0.41406,1.00781 1.24219,1.19531 1.65625,1.5c-0.3125,0.19922 -0.71094,0.10156 -1.125,0c0.30859,0.70313 1.01172,1.21484 1.53125,1.71875c-0.10547,0.10156 -0.31641,0.22656 -0.9375,0.125c0.51563,0.60547 1.15234,1.09766 1.875,1.5c-0.20703,0.19922 -0.61719,0.1875 -1.03125,0.1875c0.61719,0.70703 1.45313,1.03516 2.28125,1.4375c-0.41406,0.30078 -0.75,0.1875 -1.0625,0.1875c0.51953,0.50391 1.47656,0.69922 2.40625,1c-0.20703,0.30078 -0.33594,0.30469 -0.75,0.40625c0.92969,0.50391 2.375,0.31641 2.6875,0.71875c0,0.30078 -0.28516,0.49219 -0.59375,0.59375c1.55078,0 5.67578,-0.08984 6.5,-3.21875c-1.55078,-1.71094 -4.45703,-3.73828 -9.3125,-6.15625c3.82422,1.21094 7.23047,2.93359 10.125,5.25c3.41016,-1.51172 1.02734,-5.44922 -0.625,-7.0625c-0.10156,0.40234 -0.17578,0.61719 -0.28125,0.71875c-0.51562,-0.60547 -0.93359,-1.21484 -1.65625,-1.71875c0,0.30469 0.19531,0.60547 -0.21875,0.90625c-0.41406,-0.50391 -0.94141,-0.91016 -1.5625,-1.3125c0.30859,0.50391 0.11328,0.70313 -0.09375,0.90625c-0.51562,-0.50391 -1.02734,-0.91016 -2.0625,-1.3125zM34.09375,0c-0.9375,0.30469 -1.44922,0.8125 -1.96875,1.21875c-0.20703,-0.20312 -0.40625,-0.39844 -0.09375,-0.90625c-0.73047,0.40625 -1.14844,0.80469 -1.5625,1.3125c-0.41406,-0.20312 -0.21875,-0.60156 -0.21875,-0.90625c-0.72656,0.60938 -1.13672,1.10938 -1.65625,1.71875c-0.10547,0 -0.21094,-0.3125 -0.3125,-0.71875c-1.66406,1.52344 -3.9375,5.47266 -0.40625,7.09375c2.91016,-2.33203 6.33984,-3.93359 10.1875,-5.25c-4.88672,2.43359 -7.8125,4.46484 -9.375,6.1875c0.83203,3.14453 5.00391,3.32031 6.5625,3.21875c-0.3125,-0.20312 -0.51953,-0.28906 -0.625,-0.59375c0.41797,-0.20312 1.75391,0.00781 2.6875,-0.5c-0.41406,-0.10156 -0.51172,-0.10156 -0.71875,-0.40625c0.83203,-0.30469 1.85547,-0.52344 2.375,-1.03125c-0.30859,0 -0.61719,0.11719 -1.03125,-0.1875c0.72656,-0.40234 1.66016,-0.82812 2.28125,-1.4375c-0.41406,-0.10156 -0.92578,-0.08594 -1.03125,-0.1875c0.72656,-0.50781 1.35547,-1.02344 1.875,-1.53125c-0.51953,0.10156 -0.83203,0.00781 -0.9375,-0.09375c0.51953,-0.60937 1.25,-1.00781 1.5625,-1.71875c-0.41406,0.20313 -0.84375,0.20313 -1.15625,0c0.20703,-0.40625 1.05469,-0.60937 1.46875,-1.625c-0.41406,0 -0.92578,0.10156 -1.03125,0c0.21094,-0.8125 0.625,-1.33594 0.9375,-1.84375c-0.9375,0 -2.39453,0.00781 -2.5,-0.09375l0.625,-0.59375c-0.9375,-0.20312 -1.86328,0.07813 -2.59375,0.28125c-0.3125,-0.30469 -0.00781,-0.60156 0.40625,-0.90625c-0.82812,0.10156 -1.56641,0.29688 -2.1875,0.5c-0.3125,-0.30469 0.21875,-0.60156 0.53125,-0.90625c-1.24609,0.30469 -1.76172,0.60156 -2.28125,0.90625c-0.41406,-0.40625 -0.02344,-0.69531 0.1875,-1zM25.28125,13.25c-2.78125,0 -5.5625,2.13672 -5.5625,3.3125c0,1.49609 2.25,3.125 5.5625,3.125c3.42188,0 5.5625,-1.17578 5.5625,-2.78125c0,-1.81641 -3.10547,-3.65625 -5.5625,-3.65625zM16.84375,14.375c-3.90625,0.02734 -6.9375,2.73047 -6.75,7.21875c0.10547,2.03125 10.17969,-6.74219 8.46875,-7.0625c-0.58984,-0.10547 -1.16016,-0.16016 -1.71875,-0.15625zM33.21875,14.53125c-0.55469,-0.01562 -1.12891,0.03125 -1.71875,0.125c-1.71094,0.21484 8.33203,8.95703 8.4375,7.03125c0.09375,-4.39453 -2.83203,-7.05469 -6.71875,-7.15625zM31.25,20c-0.92578,0.00391 -1.85547,0.25 -2.65625,0.75c-2.46094,1.60547 -2.89062,5.32031 -0.96875,8.3125c2.03125,2.99219 5.69531,4.08594 8.15625,2.375c2.45703,-1.60547 2.86328,-5.35156 0.9375,-8.34375c-1.32422,-1.98437 -3.43359,-3.10547 -5.46875,-3.09375zM18.78125,20.25c-1.85937,0.16016 -3.73437,1.28516 -4.9375,3.15625c-2.03125,2.99219 -1.59766,6.73828 0.96875,8.34375c2.46094,1.60547 6.09375,0.54297 8.125,-2.34375c2.03125,-2.99219 1.59766,-6.73828 -0.96875,-8.34375c-0.96094,-0.64062 -2.07031,-0.90625 -3.1875,-0.8125zM40.53125,23.5c-2.41797,0.01953 -0.64453,11.21094 1.53125,10.28125c2.35156,-1.92578 3.20703,-7.57812 -1.28125,-10.25c-0.08594,-0.02344 -0.17187,-0.03125 -0.25,-0.03125zM9.5,23.6875c-0.07812,0 -0.16406,0.00781 -0.25,0.03125c-4.49219,2.56641 -3.74219,8.35547 -1.28125,10.28125c2.17578,0.93359 3.94922,-10.29297 1.53125,-10.3125zM25.40625,31.3125c-3.42187,0 -6.09375,2.58594 -6.09375,5.6875v0.09375c0,3.10156 2.67188,5.5625 6.09375,5.5625c3.41797,0 6.09375,-2.55469 6.09375,-5.65625c0,-3.09766 -2.78125,-5.57812 -6.09375,-5.6875zM38.9375,33.53125c-1.4375,0.02344 -3.17578,1.40625 -4.78125,3.25c-1.92578,2.13672 -2.98437,6.18359 -1.59375,7.46875c1.39063,0.96094 4.90625,0.85156 7.46875,-2.78125c1.81641,-2.46094 1.17969,-6.39844 0.21875,-7.46875c-0.40234,-0.32031 -0.83203,-0.47656 -1.3125,-0.46875zM11.15625,34.375c-0.37109,0.03906 -0.74219,0.17578 -1.0625,0.375c-1.07031,0.85938 -1.26172,3.73828 0.34375,6.625c2.35156,3.42188 5.64063,3.73047 7.03125,2.875c1.49609,-1.07031 0.64844,-4.8125 -1.0625,-6.84375c-1.65234,-1.91016 -3.64062,-3.19141 -5.25,-3.03125zM24.4375,44.375c-2.34375,0.15234 -5.125,1.09766 -5.125,2.21875c0,0.96094 2.97656,3.54297 5.96875,3.4375c2.88672,0.10938 5.875,-2.46875 5.875,-3.75c-0.10547,-1.17969 -3.29297,-2.01172 -5.75,-1.90625c-0.30859,-0.01172 -0.63281,-0.02344 -0.96875,0z"></path></g></g></svg>